<?xml version="1.0" encoding="utf-8"?>
<svg viewBox="0 0 960 100" xmlns="http://www.w3.org/2000/svg">
  <rect x="0" y="0" width="960" height="100" style="fill: rgb(133, 203, 204);"/>
  <path d="M0 32L17.8 36.3C35.7 40.7 71.3 49.3 106.8 49.2C142.3 49 177.7 40 213.2 34.2C248.7 28.3 284.3 25.7 320 24.2C355.7 22.7 391.3 22.3 426.8 26.5C462.3 30.7 497.7 39.3 533.2 42.5C568.7 45.7 604.3 43.3 640 40.3C675.7 37.3 711.3 33.7 746.8 31C782.3 28.3 817.7 26.7 853.2 28.5C888.7 30.3 924.3 35.7 942.2 38.3L960 41L960 0L942.2 0C924.3 0 888.7 0 853.2 0C817.7 0 782.3 0 746.8 0C711.3 0 675.7 0 640 0C604.3 0 568.7 0 533.2 0C497.7 0 462.3 0 426.8 0C391.3 0 355.7 0 320 0C284.3 0 248.7 0 213.2 0C177.7 0 142.3 0 106.8 0C71.3 0 35.7 0 17.8 0L0 0Z" stroke-linecap="round" stroke-linejoin="miter" style="fill: rgb(251, 199, 141);"/>
</svg>