<svg id="visual" viewBox="0 0 960 300" width="960" height="300" xmlns="http://www.w3.org/2000/svg" xmlns:xlink="http://www.w3.org/1999/xlink" version="1.1"><rect x="0" y="0" width="960" height="300" fill="#ffcc3f"></rect><path d="M0 127L20 132.2C40 137.3 80 147.7 120 159.5C160 171.3 200 184.7 240 171C280 157.3 320 116.7 360 99.2C400 81.7 440 87.3 480 95.2C520 103 560 113 600 122.3C640 131.7 680 140.3 720 142C760 143.7 800 138.3 840 136.5C880 134.7 920 136.3 940 137.2L960 138L960 0L940 0C920 0 880 0 840 0C800 0 760 0 720 0C680 0 640 0 600 0C560 0 520 0 480 0C440 0 400 0 360 0C320 0 280 0 240 0C200 0 160 0 120 0C80 0 40 0 20 0L0 0Z" fill="#344E41" stroke-linecap="round" stroke-linejoin="miter"></path></svg>